G04 #@! TF.GenerationSoftware,KiCad,Pcbnew,(5.1.4)-1*
G04 #@! TF.CreationDate,2019-11-25T13:30:55+01:00*
G04 #@! TF.ProjectId,Fractionated dipole antenna 2015,46726163-7469-46f6-9e61-746564206469,rev?*
G04 #@! TF.SameCoordinates,Original*
G04 #@! TF.FileFunction,Soldermask,Top*
G04 #@! TF.FilePolarity,Negative*
%FSLAX46Y46*%
G04 Gerber Fmt 4.6, Leading zero omitted, Abs format (unit mm)*
G04 Created by KiCad (PCBNEW (5.1.4)-1) date 2019-11-25 13:30:55*
%MOMM*%
%LPD*%
G04 APERTURE LIST*
%ADD10C,0.100000*%
G04 APERTURE END LIST*
D10*
G36*
X211461600Y-140003000D02*
G01*
X201461600Y-140003000D01*
X201461600Y-132003000D01*
X211461600Y-132003000D01*
X211461600Y-140003000D01*
G37*
G36*
X225461600Y-140003000D02*
G01*
X215461600Y-140003000D01*
X215461600Y-132003000D01*
X225461600Y-132003000D01*
X225461600Y-140003000D01*
G37*
G36*
X211461600Y-151003000D02*
G01*
X201461600Y-151003000D01*
X201461600Y-146003000D01*
X211461600Y-146003000D01*
X211461600Y-151003000D01*
G37*
G36*
X225461600Y-151003000D02*
G01*
X215461600Y-151003000D01*
X215461600Y-146003000D01*
X225461600Y-146003000D01*
X225461600Y-151003000D01*
G37*
G36*
X349836856Y-161394298D02*
G01*
X349943179Y-161415447D01*
X350243642Y-161539903D01*
X350514051Y-161720585D01*
X350744015Y-161950549D01*
X350924697Y-162220958D01*
X351049153Y-162521421D01*
X351112600Y-162840391D01*
X351112600Y-163165609D01*
X351049153Y-163484579D01*
X350924697Y-163785042D01*
X350744015Y-164055451D01*
X350514051Y-164285415D01*
X350243642Y-164466097D01*
X349943179Y-164590553D01*
X349836856Y-164611702D01*
X349624211Y-164654000D01*
X349298989Y-164654000D01*
X349086344Y-164611702D01*
X348980021Y-164590553D01*
X348679558Y-164466097D01*
X348409149Y-164285415D01*
X348179185Y-164055451D01*
X347998503Y-163785042D01*
X347874047Y-163484579D01*
X347810600Y-163165609D01*
X347810600Y-162840391D01*
X347874047Y-162521421D01*
X347998503Y-162220958D01*
X348179185Y-161950549D01*
X348409149Y-161720585D01*
X348679558Y-161539903D01*
X348980021Y-161415447D01*
X349086344Y-161394298D01*
X349298989Y-161352000D01*
X349624211Y-161352000D01*
X349836856Y-161394298D01*
X349836856Y-161394298D01*
G37*
G36*
X231841356Y-161394298D02*
G01*
X231947679Y-161415447D01*
X232248142Y-161539903D01*
X232518551Y-161720585D01*
X232748515Y-161950549D01*
X232929197Y-162220958D01*
X233053653Y-162521421D01*
X233117100Y-162840391D01*
X233117100Y-163165609D01*
X233053653Y-163484579D01*
X232929197Y-163785042D01*
X232748515Y-164055451D01*
X232518551Y-164285415D01*
X232248142Y-164466097D01*
X231947679Y-164590553D01*
X231841356Y-164611702D01*
X231628711Y-164654000D01*
X231303489Y-164654000D01*
X231090844Y-164611702D01*
X230984521Y-164590553D01*
X230684058Y-164466097D01*
X230413649Y-164285415D01*
X230183685Y-164055451D01*
X230003003Y-163785042D01*
X229878547Y-163484579D01*
X229815100Y-163165609D01*
X229815100Y-162840391D01*
X229878547Y-162521421D01*
X230003003Y-162220958D01*
X230183685Y-161950549D01*
X230413649Y-161720585D01*
X230684058Y-161539903D01*
X230984521Y-161415447D01*
X231090844Y-161394298D01*
X231303489Y-161352000D01*
X231628711Y-161352000D01*
X231841356Y-161394298D01*
X231841356Y-161394298D01*
G37*
G36*
X195836856Y-161394298D02*
G01*
X195943179Y-161415447D01*
X196243642Y-161539903D01*
X196514051Y-161720585D01*
X196744015Y-161950549D01*
X196924697Y-162220958D01*
X197049153Y-162521421D01*
X197112600Y-162840391D01*
X197112600Y-163165609D01*
X197049153Y-163484579D01*
X196924697Y-163785042D01*
X196744015Y-164055451D01*
X196514051Y-164285415D01*
X196243642Y-164466097D01*
X195943179Y-164590553D01*
X195836856Y-164611702D01*
X195624211Y-164654000D01*
X195298989Y-164654000D01*
X195086344Y-164611702D01*
X194980021Y-164590553D01*
X194679558Y-164466097D01*
X194409149Y-164285415D01*
X194179185Y-164055451D01*
X193998503Y-163785042D01*
X193874047Y-163484579D01*
X193810600Y-163165609D01*
X193810600Y-162840391D01*
X193874047Y-162521421D01*
X193998503Y-162220958D01*
X194179185Y-161950549D01*
X194409149Y-161720585D01*
X194679558Y-161539903D01*
X194980021Y-161415447D01*
X195086344Y-161394298D01*
X195298989Y-161352000D01*
X195624211Y-161352000D01*
X195836856Y-161394298D01*
X195836856Y-161394298D01*
G37*
G36*
X77836856Y-161394298D02*
G01*
X77943179Y-161415447D01*
X78243642Y-161539903D01*
X78514051Y-161720585D01*
X78744015Y-161950549D01*
X78924697Y-162220958D01*
X79049153Y-162521421D01*
X79112600Y-162840391D01*
X79112600Y-163165609D01*
X79049153Y-163484579D01*
X78924697Y-163785042D01*
X78744015Y-164055451D01*
X78514051Y-164285415D01*
X78243642Y-164466097D01*
X77943179Y-164590553D01*
X77836856Y-164611702D01*
X77624211Y-164654000D01*
X77298989Y-164654000D01*
X77086344Y-164611702D01*
X76980021Y-164590553D01*
X76679558Y-164466097D01*
X76409149Y-164285415D01*
X76179185Y-164055451D01*
X75998503Y-163785042D01*
X75874047Y-163484579D01*
X75810600Y-163165609D01*
X75810600Y-162840391D01*
X75874047Y-162521421D01*
X75998503Y-162220958D01*
X76179185Y-161950549D01*
X76409149Y-161720585D01*
X76679558Y-161539903D01*
X76980021Y-161415447D01*
X77086344Y-161394298D01*
X77298989Y-161352000D01*
X77624211Y-161352000D01*
X77836856Y-161394298D01*
X77836856Y-161394298D01*
G37*
G36*
X349836856Y-137394298D02*
G01*
X349943179Y-137415447D01*
X350243642Y-137539903D01*
X350514051Y-137720585D01*
X350744015Y-137950549D01*
X350924697Y-138220958D01*
X351049153Y-138521421D01*
X351112600Y-138840391D01*
X351112600Y-139165609D01*
X351049153Y-139484579D01*
X350924697Y-139785042D01*
X350744015Y-140055451D01*
X350514051Y-140285415D01*
X350243642Y-140466097D01*
X349943179Y-140590553D01*
X349836856Y-140611702D01*
X349624211Y-140654000D01*
X349298989Y-140654000D01*
X349086344Y-140611702D01*
X348980021Y-140590553D01*
X348679558Y-140466097D01*
X348409149Y-140285415D01*
X348179185Y-140055451D01*
X347998503Y-139785042D01*
X347874047Y-139484579D01*
X347810600Y-139165609D01*
X347810600Y-138840391D01*
X347874047Y-138521421D01*
X347998503Y-138220958D01*
X348179185Y-137950549D01*
X348409149Y-137720585D01*
X348679558Y-137539903D01*
X348980021Y-137415447D01*
X349086344Y-137394298D01*
X349298989Y-137352000D01*
X349624211Y-137352000D01*
X349836856Y-137394298D01*
X349836856Y-137394298D01*
G37*
G36*
X231836856Y-137394298D02*
G01*
X231943179Y-137415447D01*
X232243642Y-137539903D01*
X232514051Y-137720585D01*
X232744015Y-137950549D01*
X232924697Y-138220958D01*
X233049153Y-138521421D01*
X233112600Y-138840391D01*
X233112600Y-139165609D01*
X233049153Y-139484579D01*
X232924697Y-139785042D01*
X232744015Y-140055451D01*
X232514051Y-140285415D01*
X232243642Y-140466097D01*
X231943179Y-140590553D01*
X231836856Y-140611702D01*
X231624211Y-140654000D01*
X231298989Y-140654000D01*
X231086344Y-140611702D01*
X230980021Y-140590553D01*
X230679558Y-140466097D01*
X230409149Y-140285415D01*
X230179185Y-140055451D01*
X229998503Y-139785042D01*
X229874047Y-139484579D01*
X229810600Y-139165609D01*
X229810600Y-138840391D01*
X229874047Y-138521421D01*
X229998503Y-138220958D01*
X230179185Y-137950549D01*
X230409149Y-137720585D01*
X230679558Y-137539903D01*
X230980021Y-137415447D01*
X231086344Y-137394298D01*
X231298989Y-137352000D01*
X231624211Y-137352000D01*
X231836856Y-137394298D01*
X231836856Y-137394298D01*
G37*
G36*
X195836856Y-137394298D02*
G01*
X195943179Y-137415447D01*
X196243642Y-137539903D01*
X196514051Y-137720585D01*
X196744015Y-137950549D01*
X196924697Y-138220958D01*
X197049153Y-138521421D01*
X197112600Y-138840391D01*
X197112600Y-139165609D01*
X197049153Y-139484579D01*
X196924697Y-139785042D01*
X196744015Y-140055451D01*
X196514051Y-140285415D01*
X196243642Y-140466097D01*
X195943179Y-140590553D01*
X195836856Y-140611702D01*
X195624211Y-140654000D01*
X195298989Y-140654000D01*
X195086344Y-140611702D01*
X194980021Y-140590553D01*
X194679558Y-140466097D01*
X194409149Y-140285415D01*
X194179185Y-140055451D01*
X193998503Y-139785042D01*
X193874047Y-139484579D01*
X193810600Y-139165609D01*
X193810600Y-138840391D01*
X193874047Y-138521421D01*
X193998503Y-138220958D01*
X194179185Y-137950549D01*
X194409149Y-137720585D01*
X194679558Y-137539903D01*
X194980021Y-137415447D01*
X195086344Y-137394298D01*
X195298989Y-137352000D01*
X195624211Y-137352000D01*
X195836856Y-137394298D01*
X195836856Y-137394298D01*
G37*
G36*
X77836856Y-137394298D02*
G01*
X77943179Y-137415447D01*
X78243642Y-137539903D01*
X78514051Y-137720585D01*
X78744015Y-137950549D01*
X78924697Y-138220958D01*
X79049153Y-138521421D01*
X79112600Y-138840391D01*
X79112600Y-139165609D01*
X79049153Y-139484579D01*
X78924697Y-139785042D01*
X78744015Y-140055451D01*
X78514051Y-140285415D01*
X78243642Y-140466097D01*
X77943179Y-140590553D01*
X77836856Y-140611702D01*
X77624211Y-140654000D01*
X77298989Y-140654000D01*
X77086344Y-140611702D01*
X76980021Y-140590553D01*
X76679558Y-140466097D01*
X76409149Y-140285415D01*
X76179185Y-140055451D01*
X75998503Y-139785042D01*
X75874047Y-139484579D01*
X75810600Y-139165609D01*
X75810600Y-138840391D01*
X75874047Y-138521421D01*
X75998503Y-138220958D01*
X76179185Y-137950549D01*
X76409149Y-137720585D01*
X76679558Y-137539903D01*
X76980021Y-137415447D01*
X77086344Y-137394298D01*
X77298989Y-137352000D01*
X77624211Y-137352000D01*
X77836856Y-137394298D01*
X77836856Y-137394298D01*
G37*
M02*
