G04 #@! TF.GenerationSoftware,KiCad,Pcbnew,(5.1.4)-1*
G04 #@! TF.CreationDate,2019-11-25T13:30:55+01:00*
G04 #@! TF.ProjectId,Fractionated dipole antenna 2015,46726163-7469-46f6-9e61-746564206469,rev?*
G04 #@! TF.SameCoordinates,Original*
G04 #@! TF.FileFunction,Copper,L1,Top*
G04 #@! TF.FilePolarity,Positive*
%FSLAX46Y46*%
G04 Gerber Fmt 4.6, Leading zero omitted, Abs format (unit mm)*
G04 Created by KiCad (PCBNEW (5.1.4)-1) date 2019-11-25 13:30:55*
%MOMM*%
%LPD*%
G04 APERTURE LIST*
%ADD10C,0.100000*%
%ADD11C,0.001000*%
%ADD12C,4.000000*%
G04 APERTURE END LIST*
D10*
G36*
X105461600Y-156003000D02*
G01*
X61461600Y-156003000D01*
X61461600Y-146003000D01*
X105461600Y-146003000D01*
X105461600Y-156003000D01*
G37*
G36*
X211461600Y-156003000D02*
G01*
X167461600Y-156003000D01*
X167461600Y-146003000D01*
X211461600Y-146003000D01*
X211461600Y-156003000D01*
G37*
G36*
X259461600Y-156003000D02*
G01*
X215461600Y-156003000D01*
X215461600Y-146003000D01*
X259461600Y-146003000D01*
X259461600Y-156003000D01*
G37*
G36*
X365461600Y-156003000D02*
G01*
X321461600Y-156003000D01*
X321461600Y-146003000D01*
X365461600Y-146003000D01*
X365461600Y-156003000D01*
G37*
G36*
X155461600Y-156003000D02*
G01*
X117461600Y-156003000D01*
X117461600Y-146003000D01*
X155461600Y-146003000D01*
X155461600Y-156003000D01*
G37*
G36*
X309461600Y-156003000D02*
G01*
X271461600Y-156003000D01*
X271461600Y-146003000D01*
X309461600Y-146003000D01*
X309461600Y-156003000D01*
G37*
G36*
X211461600Y-140003000D02*
G01*
X201461600Y-140003000D01*
X201461600Y-132003000D01*
X211461600Y-132003000D01*
X211461600Y-140003000D01*
G37*
G36*
X225461600Y-140003000D02*
G01*
X215461600Y-140003000D01*
X215461600Y-132003000D01*
X225461600Y-132003000D01*
X225461600Y-140003000D01*
G37*
G36*
X105461600Y-156003000D02*
G01*
X61461600Y-156003000D01*
X61461600Y-146003000D01*
X105461600Y-146003000D01*
X105461600Y-156003000D01*
G37*
G36*
X155461600Y-156003000D02*
G01*
X117461600Y-156003000D01*
X117461600Y-146003000D01*
X155461600Y-146003000D01*
X155461600Y-156003000D01*
G37*
G36*
X211461600Y-156003000D02*
G01*
X167461600Y-156003000D01*
X167461600Y-146003000D01*
X211461600Y-146003000D01*
X211461600Y-156003000D01*
G37*
G36*
X259461600Y-156003000D02*
G01*
X215461600Y-156003000D01*
X215461600Y-146003000D01*
X259461600Y-146003000D01*
X259461600Y-156003000D01*
G37*
G36*
X309461600Y-156003000D02*
G01*
X271461600Y-156003000D01*
X271461600Y-146003000D01*
X309461600Y-146003000D01*
X309461600Y-156003000D01*
G37*
G36*
X365461600Y-156003000D02*
G01*
X321461600Y-156003000D01*
X321461600Y-146003000D01*
X365461600Y-146003000D01*
X365461600Y-156003000D01*
G37*
G36*
X211461600Y-140003000D02*
G01*
X201461600Y-140003000D01*
X201461600Y-132003000D01*
X211461600Y-132003000D01*
X211461600Y-140003000D01*
G37*
G36*
X225461600Y-140003000D02*
G01*
X215461600Y-140003000D01*
X215461600Y-132003000D01*
X225461600Y-132003000D01*
X225461600Y-140003000D01*
G37*
D11*
X61461600Y-146003000D02*
X61461600Y-156003000D01*
X61461600Y-156003000D02*
X105461600Y-156003000D01*
X105461600Y-156003000D02*
X105461600Y-146003000D01*
X105461600Y-146003000D02*
X61461600Y-146003000D01*
X117461600Y-146003000D02*
X117461600Y-156003000D01*
X117461600Y-156003000D02*
X155461600Y-156003000D01*
X155461600Y-156003000D02*
X155461600Y-146003000D01*
X155461600Y-146003000D02*
X117461600Y-146003000D01*
X167461600Y-146003000D02*
X167461600Y-156003000D01*
X167461600Y-156003000D02*
X211461600Y-156003000D01*
X211461600Y-156003000D02*
X211461600Y-146003000D01*
X211461600Y-146003000D02*
X167461600Y-146003000D01*
X215461600Y-146003000D02*
X215461600Y-156003000D01*
X215461600Y-156003000D02*
X259461600Y-156003000D01*
X259461600Y-156003000D02*
X259461600Y-146003000D01*
X259461600Y-146003000D02*
X215461600Y-146003000D01*
X271461600Y-146003000D02*
X271461600Y-156003000D01*
X271461600Y-156003000D02*
X309461600Y-156003000D01*
X309461600Y-156003000D02*
X309461600Y-146003000D01*
X309461600Y-146003000D02*
X271461600Y-146003000D01*
X321461600Y-146003000D02*
X321461600Y-156003000D01*
X321461600Y-156003000D02*
X365461600Y-156003000D01*
X365461600Y-156003000D02*
X365461600Y-146003000D01*
X365461600Y-146003000D02*
X321461600Y-146003000D01*
X211461600Y-140003000D02*
X211461600Y-132003000D01*
X211461600Y-132003000D02*
X201461600Y-132003000D01*
X201461600Y-132003000D02*
X201461600Y-140003000D01*
X201461600Y-140003000D02*
X211461600Y-140003000D01*
X225461600Y-140003000D02*
X225461600Y-132003000D01*
X225461600Y-132003000D02*
X215461600Y-132003000D01*
X215461600Y-132003000D02*
X215461600Y-140003000D01*
X215461600Y-140003000D02*
X225461600Y-140003000D01*
X61461600Y-146003000D02*
X61461600Y-156003000D01*
X61461600Y-156003000D02*
X105461600Y-156003000D01*
X105461600Y-156003000D02*
X105461600Y-146003000D01*
X105461600Y-146003000D02*
X61461600Y-146003000D01*
X117461600Y-146003000D02*
X117461600Y-156003000D01*
X117461600Y-156003000D02*
X155461600Y-156003000D01*
X155461600Y-156003000D02*
X155461600Y-146003000D01*
X155461600Y-146003000D02*
X117461600Y-146003000D01*
X167461600Y-146003000D02*
X167461600Y-156003000D01*
X167461600Y-156003000D02*
X211461600Y-156003000D01*
X211461600Y-156003000D02*
X211461600Y-146003000D01*
X211461600Y-146003000D02*
X167461600Y-146003000D01*
X215461600Y-146003000D02*
X215461600Y-156003000D01*
X215461600Y-156003000D02*
X259461600Y-156003000D01*
X259461600Y-156003000D02*
X259461600Y-146003000D01*
X259461600Y-146003000D02*
X215461600Y-146003000D01*
X271461600Y-146003000D02*
X271461600Y-156003000D01*
X271461600Y-156003000D02*
X309461600Y-156003000D01*
X309461600Y-156003000D02*
X309461600Y-146003000D01*
X309461600Y-146003000D02*
X271461600Y-146003000D01*
X321461600Y-146003000D02*
X321461600Y-156003000D01*
X321461600Y-156003000D02*
X365461600Y-156003000D01*
X365461600Y-156003000D02*
X365461600Y-146003000D01*
X365461600Y-146003000D02*
X321461600Y-146003000D01*
X211461600Y-140003000D02*
X211461600Y-132003000D01*
X211461600Y-132003000D02*
X201461600Y-132003000D01*
X201461600Y-132003000D02*
X201461600Y-140003000D01*
X201461600Y-140003000D02*
X211461600Y-140003000D01*
X225461600Y-140003000D02*
X225461600Y-132003000D01*
X225461600Y-132003000D02*
X215461600Y-132003000D01*
X215461600Y-132003000D02*
X215461600Y-140003000D01*
X215461600Y-140003000D02*
X225461600Y-140003000D01*
D12*
X111461600Y-163003000D02*
X113461600Y-165003000D01*
X113461600Y-165003000D02*
X117461600Y-165003000D01*
X117461600Y-165003000D02*
X119461600Y-163003000D01*
X161461600Y-163003000D02*
X163461600Y-165003000D01*
X163461600Y-165003000D02*
X167461600Y-165003000D01*
X167461600Y-165003000D02*
X169461600Y-163003000D01*
X111461600Y-139003000D02*
X111461600Y-163003000D01*
X119461600Y-163003000D02*
X119461600Y-151003000D01*
X161461600Y-139003000D02*
X161461600Y-163003000D01*
X169461600Y-163003000D02*
X169461600Y-151003000D01*
X103461600Y-151003000D02*
X103461600Y-139003000D01*
X153461600Y-151003000D02*
X153461600Y-139003000D01*
X103461600Y-139003000D02*
X105461600Y-137003000D01*
X109461600Y-137003000D02*
X111461600Y-139003000D01*
X153461600Y-139003000D02*
X155461600Y-137003000D01*
X159461600Y-137003000D02*
X161461600Y-139003000D01*
X105461600Y-137003000D02*
X109461600Y-137003000D01*
X155461600Y-137003000D02*
X159461600Y-137003000D01*
X265461600Y-163003000D02*
X267461600Y-165003000D01*
X267461600Y-165003000D02*
X271461600Y-165003000D01*
X271461600Y-165003000D02*
X273461600Y-163003000D01*
X315461600Y-163003000D02*
X317461600Y-165003000D01*
X317461600Y-165003000D02*
X321461600Y-165003000D01*
X321461600Y-165003000D02*
X323461600Y-163003000D01*
X265461600Y-139003000D02*
X265461600Y-163003000D01*
X273461600Y-163003000D02*
X273461600Y-151003000D01*
X315461600Y-139003000D02*
X315461600Y-163003000D01*
X323461600Y-163003000D02*
X323461600Y-151003000D01*
X257461600Y-151003000D02*
X257461600Y-139003000D01*
X307461600Y-151003000D02*
X307461600Y-139003000D01*
X257461600Y-139003000D02*
X259461600Y-137003000D01*
X263461600Y-137003000D02*
X265461600Y-139003000D01*
X307461600Y-139003000D02*
X309461600Y-137003000D01*
X313461600Y-137003000D02*
X315461600Y-139003000D01*
X259461600Y-137003000D02*
X263461600Y-137003000D01*
X309461600Y-137003000D02*
X313461600Y-137003000D01*
M02*
