G04 #@! TF.GenerationSoftware,KiCad,Pcbnew,(5.1.4)-1*
G04 #@! TF.CreationDate,2019-11-25T13:30:55+01:00*
G04 #@! TF.ProjectId,Fractionated dipole antenna 2015,46726163-7469-46f6-9e61-746564206469,rev?*
G04 #@! TF.SameCoordinates,Original*
G04 #@! TF.FileFunction,Legend,Top*
G04 #@! TF.FilePolarity,Positive*
%FSLAX46Y46*%
G04 Gerber Fmt 4.6, Leading zero omitted, Abs format (unit mm)*
G04 Created by KiCad (PCBNEW (5.1.4)-1) date 2019-11-25 13:30:55*
%MOMM*%
%LPD*%
G04 APERTURE LIST*
%ADD10C,0.400000*%
G04 APERTURE END LIST*
D10*
X128007638Y-157040952D02*
X128007638Y-159064761D01*
X128126685Y-159302857D01*
X128245733Y-159421904D01*
X128483828Y-159540952D01*
X128960019Y-159540952D01*
X129198114Y-159421904D01*
X129317161Y-159302857D01*
X129436209Y-159064761D01*
X129436209Y-157040952D01*
X130626685Y-159540952D02*
X130626685Y-157040952D01*
X131460019Y-158826666D01*
X132293352Y-157040952D01*
X132293352Y-159540952D01*
X134912400Y-159302857D02*
X134793352Y-159421904D01*
X134436209Y-159540952D01*
X134198114Y-159540952D01*
X133840971Y-159421904D01*
X133602876Y-159183809D01*
X133483828Y-158945714D01*
X133364780Y-158469523D01*
X133364780Y-158112380D01*
X133483828Y-157636190D01*
X133602876Y-157398095D01*
X133840971Y-157160000D01*
X134198114Y-157040952D01*
X134436209Y-157040952D01*
X134793352Y-157160000D01*
X134912400Y-157279047D01*
X137888590Y-157040952D02*
X137888590Y-159064761D01*
X138007638Y-159302857D01*
X138126685Y-159421904D01*
X138364780Y-159540952D01*
X138840971Y-159540952D01*
X139079066Y-159421904D01*
X139198114Y-159302857D01*
X139317161Y-159064761D01*
X139317161Y-157040952D01*
X140150495Y-157874285D02*
X141102876Y-157874285D01*
X140507638Y-157040952D02*
X140507638Y-159183809D01*
X140626685Y-159421904D01*
X140864780Y-159540952D01*
X141102876Y-159540952D01*
X141936209Y-159540952D02*
X141936209Y-157874285D01*
X141936209Y-158350476D02*
X142055257Y-158112380D01*
X142174304Y-157993333D01*
X142412400Y-157874285D01*
X142650495Y-157874285D01*
X144436209Y-159421904D02*
X144198114Y-159540952D01*
X143721923Y-159540952D01*
X143483828Y-159421904D01*
X143364780Y-159183809D01*
X143364780Y-158231428D01*
X143483828Y-157993333D01*
X143721923Y-157874285D01*
X144198114Y-157874285D01*
X144436209Y-157993333D01*
X144555257Y-158231428D01*
X144555257Y-158469523D01*
X143364780Y-158707619D01*
X146698114Y-159421904D02*
X146460019Y-159540952D01*
X145983828Y-159540952D01*
X145745733Y-159421904D01*
X145626685Y-159302857D01*
X145507638Y-159064761D01*
X145507638Y-158350476D01*
X145626685Y-158112380D01*
X145745733Y-157993333D01*
X145983828Y-157874285D01*
X146460019Y-157874285D01*
X146698114Y-157993333D01*
X147769542Y-159540952D02*
X147769542Y-157040952D01*
X148840971Y-159540952D02*
X148840971Y-158231428D01*
X148721923Y-157993333D01*
X148483828Y-157874285D01*
X148126685Y-157874285D01*
X147888590Y-157993333D01*
X147769542Y-158112380D01*
X149674304Y-157874285D02*
X150626685Y-157874285D01*
X150031447Y-157040952D02*
X150031447Y-159183809D01*
X150150495Y-159421904D01*
X150388590Y-159540952D01*
X150626685Y-159540952D01*
X128007638Y-163690952D02*
X128007638Y-162024285D01*
X128007638Y-162262380D02*
X128126685Y-162143333D01*
X128364780Y-162024285D01*
X128721923Y-162024285D01*
X128960019Y-162143333D01*
X129079066Y-162381428D01*
X129079066Y-163690952D01*
X129079066Y-162381428D02*
X129198114Y-162143333D01*
X129436209Y-162024285D01*
X129793352Y-162024285D01*
X130031447Y-162143333D01*
X130150495Y-162381428D01*
X130150495Y-163690952D01*
X132293352Y-163571904D02*
X132055257Y-163690952D01*
X131579066Y-163690952D01*
X131340971Y-163571904D01*
X131221923Y-163333809D01*
X131221923Y-162381428D01*
X131340971Y-162143333D01*
X131579066Y-162024285D01*
X132055257Y-162024285D01*
X132293352Y-162143333D01*
X132412400Y-162381428D01*
X132412400Y-162619523D01*
X131221923Y-162857619D01*
X134555257Y-163690952D02*
X134555257Y-162381428D01*
X134436209Y-162143333D01*
X134198114Y-162024285D01*
X133721923Y-162024285D01*
X133483828Y-162143333D01*
X134555257Y-163571904D02*
X134317161Y-163690952D01*
X133721923Y-163690952D01*
X133483828Y-163571904D01*
X133364780Y-163333809D01*
X133364780Y-163095714D01*
X133483828Y-162857619D01*
X133721923Y-162738571D01*
X134317161Y-162738571D01*
X134555257Y-162619523D01*
X135745733Y-162024285D02*
X135745733Y-163690952D01*
X135745733Y-162262380D02*
X135864780Y-162143333D01*
X136102876Y-162024285D01*
X136460019Y-162024285D01*
X136698114Y-162143333D01*
X136817161Y-162381428D01*
X136817161Y-163690952D01*
X139079066Y-163690952D02*
X139079066Y-161190952D01*
X139079066Y-163571904D02*
X138840971Y-163690952D01*
X138364780Y-163690952D01*
X138126685Y-163571904D01*
X138007638Y-163452857D01*
X137888590Y-163214761D01*
X137888590Y-162500476D01*
X138007638Y-162262380D01*
X138126685Y-162143333D01*
X138364780Y-162024285D01*
X138840971Y-162024285D01*
X139079066Y-162143333D01*
X141221923Y-163571904D02*
X140983828Y-163690952D01*
X140507638Y-163690952D01*
X140269542Y-163571904D01*
X140150495Y-163333809D01*
X140150495Y-162381428D01*
X140269542Y-162143333D01*
X140507638Y-162024285D01*
X140983828Y-162024285D01*
X141221923Y-162143333D01*
X141340971Y-162381428D01*
X141340971Y-162619523D01*
X140150495Y-162857619D01*
X142412400Y-163690952D02*
X142412400Y-162024285D01*
X142412400Y-162500476D02*
X142531447Y-162262380D01*
X142650495Y-162143333D01*
X142888590Y-162024285D01*
X143126685Y-162024285D01*
X146936209Y-163690952D02*
X146936209Y-161190952D01*
X146936209Y-163571904D02*
X146698114Y-163690952D01*
X146221923Y-163690952D01*
X145983828Y-163571904D01*
X145864780Y-163452857D01*
X145745733Y-163214761D01*
X145745733Y-162500476D01*
X145864780Y-162262380D01*
X145983828Y-162143333D01*
X146221923Y-162024285D01*
X146698114Y-162024285D01*
X146936209Y-162143333D01*
X148126685Y-163690952D02*
X148126685Y-162024285D01*
X148126685Y-161190952D02*
X148007638Y-161310000D01*
X148126685Y-161429047D01*
X148245733Y-161310000D01*
X148126685Y-161190952D01*
X148126685Y-161429047D01*
X149317161Y-162024285D02*
X149317161Y-164524285D01*
X149317161Y-162143333D02*
X149555257Y-162024285D01*
X150031447Y-162024285D01*
X150269542Y-162143333D01*
X150388590Y-162262380D01*
X150507638Y-162500476D01*
X150507638Y-163214761D01*
X150388590Y-163452857D01*
X150269542Y-163571904D01*
X150031447Y-163690952D01*
X149555257Y-163690952D01*
X149317161Y-163571904D01*
X151936209Y-163690952D02*
X151698114Y-163571904D01*
X151579066Y-163452857D01*
X151460019Y-163214761D01*
X151460019Y-162500476D01*
X151579066Y-162262380D01*
X151698114Y-162143333D01*
X151936209Y-162024285D01*
X152293352Y-162024285D01*
X152531447Y-162143333D01*
X152650495Y-162262380D01*
X152769542Y-162500476D01*
X152769542Y-163214761D01*
X152650495Y-163452857D01*
X152531447Y-163571904D01*
X152293352Y-163690952D01*
X151936209Y-163690952D01*
X154198114Y-163690952D02*
X153960019Y-163571904D01*
X153840971Y-163333809D01*
X153840971Y-161190952D01*
X156102876Y-163571904D02*
X155864780Y-163690952D01*
X155388590Y-163690952D01*
X155150495Y-163571904D01*
X155031447Y-163333809D01*
X155031447Y-162381428D01*
X155150495Y-162143333D01*
X155388590Y-162024285D01*
X155864780Y-162024285D01*
X156102876Y-162143333D01*
X156221923Y-162381428D01*
X156221923Y-162619523D01*
X155031447Y-162857619D01*
X127650495Y-165340952D02*
X128483828Y-167840952D01*
X129317161Y-165340952D01*
X131460019Y-167840952D02*
X130031447Y-167840952D01*
X130745733Y-167840952D02*
X130745733Y-165340952D01*
X130507638Y-165698095D01*
X130269542Y-165936190D01*
X130031447Y-166055238D01*
X132531447Y-167602857D02*
X132650495Y-167721904D01*
X132531447Y-167840952D01*
X132412400Y-167721904D01*
X132531447Y-167602857D01*
X132531447Y-167840952D01*
X134198114Y-165340952D02*
X134436209Y-165340952D01*
X134674304Y-165460000D01*
X134793352Y-165579047D01*
X134912400Y-165817142D01*
X135031447Y-166293333D01*
X135031447Y-166888571D01*
X134912400Y-167364761D01*
X134793352Y-167602857D01*
X134674304Y-167721904D01*
X134436209Y-167840952D01*
X134198114Y-167840952D01*
X133960019Y-167721904D01*
X133840971Y-167602857D01*
X133721923Y-167364761D01*
X133602876Y-166888571D01*
X133602876Y-166293333D01*
X133721923Y-165817142D01*
X133840971Y-165579047D01*
X133960019Y-165460000D01*
X134198114Y-165340952D01*
M02*
